<svg width="25" height="25" viewBox="0 0 25 25" fill="none" xmlns="http://www.w3.org/2000/svg">
<path d="M16.075 11.875C16.075 12.6375 15.5125 13.2625 14.8 13.2625C14.1 13.2625 13.525 12.6375 13.525 11.875C13.525 11.1125 14.0875 10.4875 14.8 10.4875C15.5125 10.4875 16.075 11.1125 16.075 11.875ZM10.2375 10.4875C9.525 10.4875 8.9625 11.1125 8.9625 11.875C8.9625 12.6375 9.5375 13.2625 10.2375 13.2625C10.95 13.2625 11.5125 12.6375 11.5125 11.875C11.525 11.1125 10.95 10.4875 10.2375 10.4875ZM23.4375 2.575V25C20.2884 22.2171 21.2955 23.1383 17.6375 19.7375L18.3 22.05H4.125C2.7125 22.05 1.5625 20.9 1.5625 19.475V2.575C1.5625 1.15 2.7125 0 4.125 0H20.875C22.2875 0 23.4375 1.15 23.4375 2.575ZM19.875 14.425C19.875 10.4 18.075 7.1375 18.075 7.1375C16.275 5.7875 14.5625 5.825 14.5625 5.825L14.3875 6.025C16.5125 6.675 17.5 7.6125 17.5 7.6125C14.5307 5.98511 11.0428 5.98481 8.1625 7.25C7.7 7.4625 7.425 7.6125 7.425 7.6125C7.425 7.6125 8.4625 6.625 10.7125 5.975L10.5875 5.825C10.5875 5.825 8.875 5.7875 7.075 7.1375C7.075 7.1375 5.275 10.4 5.275 14.425C5.275 14.425 6.325 16.2375 9.0875 16.325C9.0875 16.325 9.55 15.7625 9.925 15.2875C8.3375 14.8125 7.7375 13.8125 7.7375 13.8125C7.92139 13.9412 8.22461 14.1081 8.25 14.125C10.3599 15.3065 13.3568 15.6937 16.05 14.5625C16.4875 14.4 16.975 14.1625 17.4875 13.825C17.4875 13.825 16.8625 14.85 15.225 15.3125C15.6 15.7875 16.05 16.325 16.05 16.325C18.8125 16.2375 19.875 14.425 19.875 14.425Z" fill="white" fill-opacity="0.5"/>
</svg>
