<svg width="25" height="25" viewBox="0 0 25 25" fill="none" xmlns="http://www.w3.org/2000/svg">
<path d="M23.8566 6.77452C23.5839 5.74804 22.7807 4.93962 21.7609 4.66527C19.9124 4.16675 12.5 4.16675 12.5 4.16675C12.5 4.16675 5.08767 4.16675 3.2391 4.66527C2.21927 4.93966 1.41606 5.74804 1.14344 6.77452C0.648132 8.63506 0.648132 12.5169 0.648132 12.5169C0.648132 12.5169 0.648132 16.3988 1.14344 18.2593C1.41606 19.2858 2.21927 20.0605 3.2391 20.3349C5.08767 20.8334 12.5 20.8334 12.5 20.8334C12.5 20.8334 19.9123 20.8334 21.7609 20.3349C22.7807 20.0605 23.5839 19.2858 23.8566 18.2593C24.3519 16.3988 24.3519 12.5169 24.3519 12.5169C24.3519 12.5169 24.3519 8.63506 23.8566 6.77452ZM10.0757 16.0414V8.99249L16.271 12.517L10.0757 16.0414Z" fill="white" fill-opacity="0.5"/>
</svg>
