<svg xmlns="http://www.w3.org/2000/svg" width="256" height="256" viewBox="0 0 100 100"><rect width="100" height="100" rx="20" fill="#7d6ee7"></rect><path fill="#fff" d="M47.21 58.10L38.12 58.10L38.12 77.45Q37.58 77.63 36.68 77.85Q35.78 78.08 34.70 78.08L34.70 78.08Q30.74 78.08 30.74 74.75L30.74 74.75L30.74 26.87Q30.74 25.43 31.46 24.66Q32.18 23.90 33.71 23.45L33.71 23.45Q36.32 22.64 40.05 22.28Q43.79 21.92 47.30 21.92L47.30 21.92Q58.73 21.92 63.99 26.73Q69.26 31.55 69.26 39.74L69.26 39.74Q69.26 48.11 63.86 53.10Q58.46 58.10 47.21 58.10L47.21 58.10ZM38.03 51.98L46.76 51.98Q53.96 51.98 57.92 49.01Q61.88 46.04 61.88 39.83L61.88 39.83Q61.88 33.71 58.05 30.88Q54.23 28.04 47.12 28.04L47.12 28.04Q44.69 28.04 42.30 28.27Q39.92 28.49 38.03 28.85L38.03 28.85L38.03 51.98Z"></path></svg>