<svg width="300" height="60" viewBox="0 0 300 60" fill="none" xmlns="http://www.w3.org/2000/svg">
<g clip-path="url(#clip0_1_332)">
<path d="M18.0891 25.2125L29.7411 13.5609L41.3994 25.2187L48.1793 18.4387L29.7411 0L11.3091 18.4325L18.0891 25.2125Z" fill="white" fill-opacity="0.5"/>
<path d="M13.301 29.9989L6.52112 23.219L-0.259078 29.9992L6.52079 36.7791L13.301 29.9989Z" fill="white" fill-opacity="0.5"/>
<path d="M18.0891 34.7874L29.7411 46.439L41.3989 34.7817L48.1827 41.5579L48.1793 41.5617L29.7411 59.9999L11.3086 41.5679L11.2991 41.5584L18.0891 34.7874Z" fill="white" fill-opacity="0.5"/>
<path d="M52.9617 36.7824L59.7419 30.0022L52.962 23.2223L46.1818 30.0025L52.9617 36.7824Z" fill="white" fill-opacity="0.5"/>
<path d="M36.6182 29.9964H36.621L29.7411 23.1165L24.6567 28.2008H24.6562L24.0724 28.7852L22.8673 29.9903L22.8578 29.9997L22.8673 30.0097L29.7411 36.8835L36.621 30.0035L36.6244 29.9997L36.6182 29.9964Z" fill="white" fill-opacity="0.5"/>
<path d="M70.3113 14.5386H85.0575C88.7173 14.5386 91.4849 15.4778 93.3605 17.3563C94.8121 18.8112 95.5376 20.6143 95.5376 22.7653V22.8563C95.5376 23.7653 95.4253 24.5685 95.1992 25.2651C94.9737 25.9627 94.6723 26.5906 94.2955 27.1512C93.9197 27.7123 93.4828 28.2047 92.9862 28.6283C92.489 29.053 91.955 29.4169 91.383 29.7192C93.2226 30.4168 94.6708 31.3632 95.7267 32.5602C96.782 33.7578 97.3104 35.4169 97.3104 37.5375V37.628C97.3104 39.0829 97.0308 40.3553 96.4712 41.4467C95.9115 42.5371 95.1097 43.4465 94.0657 44.1739C93.0217 44.9013 91.7664 45.4463 90.2992 45.8103C88.832 46.1737 87.2061 46.3552 85.4219 46.3552H70.3113V14.5386ZM83.5832 27.4014C85.129 27.4014 86.3564 27.137 87.2649 26.6062C88.1738 26.076 88.6282 25.2196 88.6282 24.0382V23.9472C88.6282 22.8871 88.234 22.0768 87.4464 21.5157C86.6583 20.9551 85.5219 20.6745 84.0376 20.6745H77.1288V27.4014H83.5832ZM85.447 40.2198C86.9924 40.2198 88.2036 39.9402 89.0832 39.3791C89.9618 38.8185 90.4015 37.947 90.4015 36.7651V36.6746C90.4015 35.614 89.9921 34.7733 89.1742 34.1516C88.3557 33.5312 87.0379 33.2204 85.2195 33.2204H77.1288V40.2202H85.447V40.2198Z" fill="white" fill-opacity="0.5"/>
<path d="M106.093 14.5386H113.093V46.3562H106.093V14.5386Z" fill="white" fill-opacity="0.5"/>
<path d="M123.695 14.5386H130.149L145.058 34.1293V14.5386H151.967V46.3562H146.013L130.604 26.1295V46.3562H123.695V14.5386Z" fill="white" fill-opacity="0.5"/>
<path d="M173.159 14.3115H179.613L193.25 46.3561H185.932L183.022 39.2203H169.568L166.659 46.3561H159.522L173.159 14.3115ZM180.523 33.0379L176.295 22.7203L172.069 33.0379H180.523Z" fill="white" fill-opacity="0.5"/>
<path d="M200.806 14.5386H207.261L222.169 34.1293V14.5386H229.078V46.3562H223.124L207.715 26.1295V46.3562H200.806V14.5386Z" fill="white" fill-opacity="0.5"/>
<path d="M254.27 46.9012C251.936 46.9012 249.77 46.4766 247.77 45.6288C245.77 44.781 244.043 43.6214 242.588 42.1514C241.134 40.6818 239.997 38.9469 239.18 36.9471C238.361 34.9468 237.952 32.8105 237.952 30.5377V30.4472C237.952 28.1744 238.361 26.0461 239.18 24.061C239.997 22.0763 241.134 20.3338 242.588 18.834C244.042 17.3341 245.785 16.1517 247.815 15.2883C249.845 14.4249 252.089 13.9932 254.543 13.9932C256.027 13.9932 257.382 14.115 258.61 14.3566C259.837 14.5997 260.95 14.9324 261.951 15.3566C262.952 15.7812 263.875 16.2963 264.724 16.9019C265.571 17.5085 266.36 18.1748 267.087 18.9022L262.634 24.0383C261.39 22.9175 260.125 22.038 258.838 21.402C257.549 20.766 256.103 20.4476 254.497 20.4476C253.163 20.4476 251.928 20.7054 250.793 21.2205C249.656 21.7356 248.679 22.4474 247.86 23.3563C247.043 24.2653 246.407 25.3187 245.951 26.5153C245.498 27.7128 245.271 28.9928 245.271 30.3562V30.4467C245.271 31.8101 245.498 33.0986 245.951 34.3099C246.407 35.5226 247.034 36.5827 247.838 37.4916C248.64 38.4005 249.611 39.1208 250.746 39.6511C251.884 40.1819 253.133 40.4463 254.497 40.4463C256.316 40.4463 257.852 40.1132 259.11 39.4464C260.367 38.7806 261.618 37.8712 262.86 36.7192L267.315 41.2192C266.496 42.0983 265.647 42.8864 264.769 43.5825C263.89 44.2801 262.928 44.8782 261.882 45.3786C260.838 45.8781 259.693 46.2577 258.451 46.5145C257.208 46.7718 255.815 46.9012 254.27 46.9012Z" fill="white" fill-opacity="0.5"/>
<path d="M275.553 14.5386H299.507V20.766H282.462V27.2204H297.462V33.4474H282.462V40.1292H299.735V46.3562H275.553V14.5386Z" fill="white" fill-opacity="0.5"/>
</g>
<defs>
<clipPath id="clip0_1_332">
<rect width="299.507" height="60" fill="white"/>
</clipPath>
</defs>
</svg>
