<svg width="396" height="60" viewBox="0 0 396 60" fill="none" xmlns="http://www.w3.org/2000/svg">
<path d="M106.281 40.6389V30.9849C106.281 25.9892 102.24 21.9485 97.188 21.9485H96.7948C94.8305 21.9485 92.8657 22.6218 91.9117 23.8006V12.3503C91.9117 10.9463 90.8451 10.2175 89.7785 10.2175C88.7119 10.2175 87.6457 10.9468 87.6457 12.3503V47.6548C87.6457 49.002 88.7123 49.6754 89.7785 49.6754C90.733 49.6754 91.687 49.1137 91.8554 47.9926C92.641 48.7777 94.2688 49.6754 96.6822 49.6754H97.1876C102.183 49.6754 106.281 45.6346 106.281 40.6389ZM102.015 40.6389C102.015 43.2771 99.8825 45.4103 97.188 45.4103H96.6826C94.1571 45.4103 91.9122 43.7261 91.9122 40.9758V30.5358C91.9122 27.9535 94.1576 26.214 96.6826 26.214H97.188C99.8825 26.214 102.015 28.3472 102.015 30.9849V40.6389ZM124.186 47.5421C124.186 46.476 123.512 45.4103 122.053 45.4103C120.313 45.3535 118.966 44.0068 118.966 42.2663V12.3503C118.966 10.9463 117.9 10.2175 116.833 10.2175C115.767 10.2175 114.7 10.9468 114.7 12.3503V42.2663C114.7 46.3634 117.956 49.6754 122.053 49.6754C123.512 49.6754 124.186 48.6088 124.186 47.5421ZM148.657 40.6389V30.9849C148.657 25.9892 144.617 21.9485 139.621 21.9485H139.06C134.064 21.9485 130.023 25.9892 130.023 30.9849V40.6389C130.023 45.6346 134.064 49.6754 139.06 49.6754H139.621C144.616 49.6754 148.657 45.6346 148.657 40.6389ZM144.392 40.6389C144.392 43.2771 142.259 45.4103 139.621 45.4103H139.116C136.422 45.4103 134.289 43.2771 134.289 40.6389V30.9849C134.289 28.3472 136.422 26.214 139.06 26.214H139.621C142.259 26.214 144.392 28.3472 144.392 30.9849V40.6389ZM174.532 40.6389C174.532 39.18 173.466 38.4503 172.399 38.4503C171.39 38.4503 170.322 39.18 170.267 40.6389C170.154 43.2771 168.133 45.4103 165.496 45.4103H164.99C162.296 45.4103 160.164 43.2771 160.164 40.6389V30.9849C160.164 28.3472 162.296 26.214 164.934 26.214H165.495C168.133 26.214 170.154 28.1783 170.266 31.0408C170.322 32.4448 171.389 33.1181 172.399 33.1181C173.466 33.1181 174.532 32.388 174.532 30.9849C174.532 25.9892 170.435 21.9485 165.495 21.9485H164.934C159.995 21.9485 155.897 25.9334 155.897 30.9849V40.6389C155.897 45.6346 159.938 49.6754 164.934 49.6754H165.495C170.491 49.6754 174.532 45.6346 174.532 40.6389ZM201.417 47.5421C201.417 47.2057 201.361 46.8134 201.137 46.476L193.447 33.0051L200.407 25.5965C200.856 25.1474 201.024 24.6425 201.024 24.1371C201.024 23.0137 200.07 21.948 198.836 21.948C198.33 21.948 197.769 22.1718 197.32 22.6777L186.655 34.0154V12.3503C186.655 10.9463 185.589 10.2175 184.522 10.2175C183.456 10.2175 182.389 10.9468 182.389 12.3503V47.5421C182.389 48.9457 183.456 49.6754 184.522 49.6754C185.589 49.6754 186.655 48.9457 186.655 47.5421V40.3011L190.416 36.2603L197.432 48.552C197.881 49.3389 198.554 49.6754 199.228 49.6754C200.52 49.6754 201.417 48.6646 201.417 47.5421ZM225.664 40.6389C225.664 39.18 224.597 38.4503 223.531 38.4503C222.521 38.4503 221.454 39.18 221.398 40.6389C221.286 43.2771 219.265 45.4103 216.628 45.4103H216.121C213.427 45.4103 211.295 43.2771 211.295 40.6389V30.9849C211.295 28.3472 213.427 26.214 216.066 26.214H216.628C219.265 26.214 221.286 28.1783 221.398 31.0408C221.454 32.4448 222.522 33.1181 223.531 33.1181C224.598 33.1181 225.664 32.388 225.664 30.9849C225.664 25.9892 221.567 21.9485 216.628 21.9485H216.066C211.127 21.9485 207.03 25.9334 207.03 30.9849V40.6389C207.03 45.6346 211.071 49.6754 216.066 49.6754H216.628C221.623 49.6754 225.664 45.6346 225.664 40.6389ZM252.157 47.5421V30.9849C252.157 25.9892 248.115 21.9485 243.119 21.9485H242.671C240.706 21.9485 238.741 22.6218 237.786 23.6321V12.3503C237.786 10.9463 236.72 10.2175 235.655 10.2175C234.588 10.2175 233.522 10.9468 233.522 12.3503V47.5421C233.522 48.9457 234.589 49.6754 235.655 49.6754C236.721 49.6754 237.786 48.9457 237.786 47.5421V30.7043C237.786 27.7851 240.313 26.214 242.896 26.214C245.364 26.214 247.89 27.7297 247.89 30.9849V47.5421C247.89 48.9457 248.957 49.6754 250.023 49.6754C251.09 49.6754 252.157 48.9457 252.157 47.5421ZM280.22 47.4877C280.22 46.5886 279.659 45.6905 278.424 45.4661C277.414 45.2981 276.965 44.6234 276.965 43.6135V30.5912C276.965 25.7645 273.148 21.948 268.152 21.948H267.759C264.785 21.948 261.192 23.1268 259.396 27.168C259.228 27.5045 259.171 27.8409 259.171 28.1783C259.171 29.3571 260.238 30.1426 261.305 30.1426C262.035 30.1426 262.764 29.8061 263.213 29.0197C264.28 27.1675 265.458 26.2135 267.76 26.2135H268.153C270.623 26.2135 272.699 27.4486 272.699 30.7592C272.699 31.0403 272.699 31.4894 272.532 31.7137C271.185 33.6226 258.724 32.0501 258.331 40.9186V41.592C258.331 46.8129 262.821 49.6749 267.367 49.6749H267.873C270.174 49.6749 272.307 48.8331 273.935 47.4309C274.664 48.4971 275.843 49.3389 277.751 49.6191C277.864 49.6749 278.032 49.6749 278.145 49.6749C279.491 49.6754 280.22 48.6088 280.22 47.4877ZM272.699 40.6389C272.699 43.2771 270.51 45.4103 267.872 45.4103H267.367C264.504 45.4103 262.596 43.8946 262.596 41.4808V41.0312C262.764 37.1021 268.546 37.3274 272.699 36.2049V40.6389ZM291.221 47.5421V24.0812C291.221 22.6777 290.154 21.9485 289.088 21.9485C288.023 21.9485 286.956 22.6781 286.956 24.0812V47.5421C286.956 48.9457 288.023 49.6754 289.088 49.6754C290.154 49.6754 291.221 48.9457 291.221 47.5421ZM318.835 47.5421V30.9849C318.835 24.8105 314.626 21.9485 309.855 21.9485H309.35C307.385 21.9485 305.533 22.6218 304.523 23.6321C304.299 22.5088 303.343 21.9485 302.39 21.9485C301.267 21.9485 300.201 22.734 300.201 24.0812V47.5421C300.201 48.9457 301.267 49.6754 302.334 49.6754C303.401 49.6754 304.467 48.9457 304.467 47.5421V30.9849C304.467 28.3472 306.656 26.214 309.293 26.214H309.799C312.493 26.214 314.626 28.3472 314.626 30.9849V47.5421C314.626 48.9457 315.693 49.6754 316.759 49.6754C317.826 49.6754 318.835 48.9457 318.835 47.5421ZM340.861 47.5421V24.0812C340.861 22.6777 339.795 21.9485 338.728 21.9485C337.663 21.9485 336.596 22.6781 336.596 24.0812V47.5421C336.596 48.9457 337.663 49.6754 338.728 49.6754C339.795 49.6754 340.861 48.9457 340.861 47.5421ZM367.858 40.6389V30.9849C367.858 25.9892 363.817 21.9485 358.822 21.9485H358.26C353.265 21.9485 349.225 25.9892 349.225 30.9849V40.6389C349.225 45.6346 353.265 49.6754 358.26 49.6754H358.822C363.817 49.6754 367.858 45.6346 367.858 40.6389ZM363.593 40.6389C363.593 43.2771 361.46 45.4103 358.822 45.4103H358.317C355.621 45.4103 353.49 43.2771 353.49 40.6389V30.9849C353.49 28.3472 355.621 26.214 358.26 26.214H358.822C361.46 26.214 363.593 28.3472 363.593 30.9849V40.6389Z" fill="white" fill-opacity="0.5"/>
<path d="M45.3802 28.5767C44.0805 28.5767 43.0236 29.634 43.0236 30.9333C43.0236 32.2325 44.0809 33.2894 45.3802 33.2894C46.6794 33.2894 47.7373 32.2325 47.7373 30.9333C47.7373 29.634 46.6799 28.5767 45.3802 28.5767Z" fill="white" fill-opacity="0.5"/>
<path d="M56.2767 22.0381C54.977 22.0381 53.921 23.0955 53.921 24.3947C53.921 25.6944 54.9775 26.7509 56.2767 26.7509C57.5759 26.7509 58.6342 25.6939 58.6342 24.3947C58.6347 23.0955 57.5764 22.0381 56.2767 22.0381Z" fill="white" fill-opacity="0.5"/>
<path d="M67.1737 15.5002C65.8745 15.5002 64.8171 16.5572 64.8171 17.8564C64.8171 19.1561 65.8745 20.2144 67.1737 20.2144C68.4738 20.2144 69.5303 19.1566 69.5303 17.8564C69.5303 16.5572 68.4738 15.5002 67.1737 15.5002Z" fill="white" fill-opacity="0.5"/>
<path d="M34.483 8.96167C33.1837 8.96167 32.1263 10.0191 32.1263 11.3187C32.1263 12.618 33.1837 13.6749 34.483 13.6749C35.7827 13.6749 36.84 12.618 36.84 11.3187C36.84 10.0191 35.7831 8.96167 34.483 8.96167Z" fill="white" fill-opacity="0.5"/>
<path d="M45.3804 2.42358C44.0807 2.42358 43.0238 3.48143 43.0238 4.78066C43.0238 6.08035 44.0812 7.13774 45.3804 7.13774C46.6797 7.13774 47.7375 6.08035 47.7375 4.78066C47.7375 3.48143 46.6801 2.42358 45.3804 2.42358Z" fill="white" fill-opacity="0.5"/>
<path d="M45.3802 15.5002C44.0805 15.5002 43.0236 16.5572 43.0236 17.8564C43.0236 19.1561 44.0809 20.2144 45.3802 20.2144C46.6794 20.2144 47.7373 19.1566 47.7373 17.8564C47.7373 16.5572 46.6799 15.5002 45.3802 15.5002Z" fill="white" fill-opacity="0.5"/>
<path d="M56.2767 8.96167C54.977 8.96167 53.921 10.0191 53.921 11.3187C53.921 12.618 54.9775 13.6749 56.2767 13.6749C57.5759 13.6749 58.6342 12.618 58.6342 11.3187C58.6347 10.0191 57.5764 8.96167 56.2767 8.96167Z" fill="white" fill-opacity="0.5"/>
<path d="M56.2767 35.1147C54.977 35.1147 53.921 36.1717 53.921 37.4704C53.921 38.7701 54.9775 39.8271 56.2767 39.8271C57.5759 39.8271 58.6342 38.7701 58.6342 37.4704C58.6347 36.1717 57.5764 35.1147 56.2767 35.1147Z" fill="white" fill-opacity="0.5"/>
<path d="M67.1737 28.5767C65.8745 28.5767 64.8171 29.634 64.8171 30.9333C64.8171 32.2325 65.8745 33.2894 67.1737 33.2894C68.4738 33.2894 69.5303 32.2325 69.5303 30.9333C69.5303 29.634 68.4738 28.5767 67.1737 28.5767Z" fill="white" fill-opacity="0.5"/>
<path d="M56.2767 48.1907C54.977 48.1907 53.921 49.2476 53.921 50.5473C53.921 51.8465 54.9775 52.9034 56.2767 52.9034C57.5759 52.9034 58.6342 51.8465 58.6342 50.5473C58.6347 49.2476 57.5764 48.1907 56.2767 48.1907Z" fill="white" fill-opacity="0.5"/>
<path d="M67.1737 41.6526C65.8745 41.6526 64.8171 42.7095 64.8171 44.0092C64.8171 45.3084 65.8745 46.3654 67.1737 46.3654C68.4738 46.3654 69.5303 45.3084 69.5303 44.0092C69.5303 42.7095 68.4738 41.6526 67.1737 41.6526Z" fill="white" fill-opacity="0.5"/>
<path d="M45.3802 54.7288C44.0805 54.7288 43.0236 55.7861 43.0236 57.0854C43.0236 58.3841 44.0809 59.4415 45.3802 59.4415C46.6794 59.4415 47.7373 58.3841 47.7373 57.0854C47.7373 55.7861 46.6799 54.7288 45.3802 54.7288Z" fill="white" fill-opacity="0.5"/>
<path d="M45.3802 41.6526C44.0805 41.6526 43.0236 42.7095 43.0236 44.0092C43.0236 45.3084 44.0809 46.3654 45.3802 46.3654C46.6794 46.3654 47.7373 45.3084 47.7373 44.0092C47.7373 42.7095 46.6799 41.6526 45.3802 41.6526Z" fill="white" fill-opacity="0.5"/>
<path d="M34.483 22.0381C33.1837 22.0381 32.1263 23.0955 32.1263 24.3947C32.1263 25.6944 33.1837 26.7509 34.483 26.7509C35.7826 26.7509 36.84 25.6939 36.84 24.3947C36.84 23.0955 35.7831 22.0381 34.483 22.0381Z" fill="white" fill-opacity="0.5"/>
<path d="M34.483 48.1907C33.1837 48.1907 32.1263 49.2476 32.1263 50.5473C32.1263 51.8465 33.1837 52.9034 34.483 52.9034C35.7826 52.9034 36.84 51.8465 36.84 50.5473C36.84 49.2476 35.7831 48.1907 34.483 48.1907Z" fill="white" fill-opacity="0.5"/>
<path d="M34.483 35.1147C33.1837 35.1147 32.1263 36.1717 32.1263 37.4704C32.1263 38.7701 33.1837 39.8271 34.483 39.8271C35.7826 39.8271 36.84 38.7701 36.84 37.4704C36.84 36.1717 35.7831 35.1147 34.483 35.1147Z" fill="white" fill-opacity="0.5"/>
<path d="M23.5865 15.5002C22.2868 15.5002 21.2303 16.5572 21.2303 17.8564C21.2303 19.1561 22.2872 20.2144 23.5865 20.2144C24.8857 20.2144 25.9435 19.1566 25.9435 17.8564C25.9435 16.5572 24.8857 15.5002 23.5865 15.5002Z" fill="white" fill-opacity="0.5"/>
<path d="M23.5865 41.6523C22.2868 41.6523 21.2303 42.7093 21.2303 44.009C21.2303 45.3082 22.2872 46.3651 23.5865 46.3651C24.8857 46.3651 25.9435 45.3082 25.9435 44.009C25.9435 42.7093 24.8857 41.6523 23.5865 41.6523Z" fill="white" fill-opacity="0.5"/>
<path d="M23.5865 28.5767C22.2868 28.5767 21.2303 29.634 21.2303 30.9333C21.2303 32.2325 22.2872 33.2894 23.5865 33.2894C24.8857 33.2894 25.9435 32.2325 25.9435 30.9333C25.9435 29.634 24.8857 28.5767 23.5865 28.5767Z" fill="white" fill-opacity="0.5"/>
<path d="M289.053 10.1003C287.871 10.1003 286.908 11.0617 286.908 12.2442C286.908 13.4266 287.871 14.3885 289.053 14.3885C290.235 14.3885 291.198 13.4266 291.198 12.2442C291.198 11.0617 290.236 10.1003 289.053 10.1003Z" fill="white" fill-opacity="0.5"/>
<path d="M338.71 10.1003C337.528 10.1003 336.565 11.0617 336.565 12.2442C336.565 13.4266 337.528 14.3885 338.71 14.3885C339.893 14.3885 340.854 13.4266 340.854 12.2442C340.855 11.0617 339.893 10.1003 338.71 10.1003Z" fill="white" fill-opacity="0.5"/>
<path d="M327.461 45.5637C326.286 45.5637 325.328 46.52 325.328 47.696C325.328 48.872 326.286 49.8293 327.461 49.8293C328.638 49.8293 329.594 48.872 329.594 47.696C329.594 46.52 328.638 45.5637 327.461 45.5637Z" fill="white" fill-opacity="0.5"/>
</svg>
