<svg width="192" height="60" viewBox="0 0 192 60" fill="none" xmlns="http://www.w3.org/2000/svg">
<path fill-rule="evenodd" clip-rule="evenodd" d="M63.9217 28.9824C63.6877 26.2944 61.6225 23.8404 58.7785 23.8404C55.9345 23.8404 53.9089 26.2944 53.6365 28.9824H63.9205H63.9217ZM65.0893 29.5164C65.088 29.6649 65.0279 29.8069 64.9222 29.9112C64.8165 30.0156 64.6738 30.0738 64.5253 30.0732H53.6365C53.9089 32.7624 55.9345 35.2164 58.7785 35.2164C60.7261 35.2164 62.1685 34.476 63.2593 32.9172C63.4177 32.7048 63.6493 32.5656 63.9529 32.694C64.0224 32.725 64.0845 32.7704 64.135 32.8273C64.1856 32.8842 64.2235 32.9512 64.2462 33.0238C64.2689 33.0964 64.2759 33.1731 64.2667 33.2486C64.2575 33.3242 64.2323 33.3969 64.1929 33.462C63.1033 35.3724 60.9217 36.306 58.7785 36.306C55.1173 36.306 52.5061 33.0348 52.5061 29.5284C52.5061 26.022 55.1173 22.7496 58.7785 22.7496C62.4373 22.7496 65.0833 26.0136 65.0905 29.5164H65.0893ZM78.2965 23.022C78.6085 23.022 78.8425 23.2956 78.8425 23.568C78.8425 23.88 78.6085 24.1128 78.2965 24.1128H75.3745V35.5668C75.3714 35.7103 75.313 35.8471 75.2115 35.9486C75.11 36.0501 74.9732 36.1085 74.8297 36.1116C74.6859 36.1088 74.5488 36.0506 74.4471 35.949C74.3453 35.8475 74.2867 35.7105 74.2837 35.5668V24.1128H71.4793C71.4072 24.1146 71.3355 24.1017 71.2685 24.075C71.2015 24.0483 71.1407 24.0082 71.0896 23.9573C71.0386 23.9064 70.9984 23.8456 70.9715 23.7787C70.9446 23.7117 70.9316 23.6401 70.9333 23.568C70.9333 23.2956 71.1673 23.022 71.4793 23.022H74.2837V18.8292C74.2837 18.5652 74.4637 18.3204 74.7241 18.2784C75.0865 18.2184 75.3745 18.4692 75.3745 18.8148V23.022H78.2965ZM96.0997 28.554V35.49C96.0997 35.8008 95.8273 36.0336 95.5537 36.0336C95.4817 36.0352 95.4101 36.0222 95.3433 35.9954C95.2764 35.9686 95.2157 35.9286 95.1648 35.8777C95.1139 35.8267 95.0738 35.766 95.047 35.6992C95.0202 35.6323 95.0072 35.5608 95.0089 35.4888V28.554C95.0089 26.2164 93.6841 23.8788 91.0741 23.8788C87.7237 23.8788 86.2825 26.8008 86.4781 29.8008C86.4781 29.8788 86.5165 30.2292 86.5165 30.2688V35.4744C86.5165 35.7384 86.3365 35.9832 86.0773 36.0264C85.7137 36.0852 85.4257 35.8344 85.4257 35.4888V12.6984C85.4257 12.426 85.6597 12.1536 85.9705 12.1536C86.2825 12.1536 86.5165 12.426 86.5165 12.6984V25.5936C87.4525 23.9184 89.1265 22.788 91.0741 22.788C94.2685 22.788 96.0997 25.5936 96.0997 28.554ZM114.449 28.9824C114.215 26.2944 112.15 23.8404 109.306 23.8404C106.462 23.8404 104.436 26.2944 104.164 28.9824H114.448H114.449ZM115.616 29.5164C115.615 29.6649 115.555 29.8069 115.449 29.9112C115.344 30.0156 115.201 30.0738 115.052 30.0732H104.164C104.436 32.7624 106.462 35.2164 109.306 35.2164C111.254 35.2164 112.696 34.476 113.786 32.9172C113.945 32.7048 114.176 32.5656 114.48 32.694C114.55 32.725 114.612 32.7704 114.662 32.8273C114.713 32.8842 114.751 32.9512 114.773 33.0238C114.796 33.0964 114.803 33.1731 114.794 33.2486C114.785 33.3242 114.76 33.3969 114.72 33.462C113.63 35.3724 111.449 36.306 109.306 36.306C105.644 36.306 103.034 33.0348 103.034 29.5284C103.034 26.022 105.644 22.7496 109.306 22.7496C112.964 22.7496 115.61 26.0136 115.618 29.5164H115.616ZM128.98 23.5284C128.98 23.88 128.785 24.0744 128.473 24.1128C125.279 24.5808 123.838 27.1908 123.838 30.2292V35.436C123.838 35.7 123.658 35.9436 123.397 35.9868C123.035 36.0456 122.746 35.7948 122.746 35.4492V23.5812C122.746 23.3172 122.926 23.0736 123.186 23.0304C123.55 22.9716 123.838 23.2224 123.838 23.568V25.9836C124.733 24.4632 126.526 23.0232 128.395 23.0232C128.668 23.0232 128.98 23.2176 128.98 23.5284ZM145.692 28.9824C145.458 26.2944 143.394 23.8404 140.55 23.8404C137.706 23.8404 135.68 26.2944 135.408 28.9824H145.692ZM146.861 29.5164C146.859 29.6648 146.799 29.8066 146.693 29.9109C146.588 30.0152 146.445 30.0735 146.297 30.0732H135.408C135.68 32.7624 137.706 35.2164 140.55 35.2164C142.498 35.2164 143.939 34.476 145.03 32.9172C145.189 32.7048 145.421 32.5656 145.724 32.694C145.804 32.7286 145.875 32.7826 145.928 32.8511C145.982 32.9196 146.018 33.0005 146.033 33.0864C146.058 33.2161 146.033 33.3504 145.964 33.4632C144.874 35.3712 142.692 36.3072 140.55 36.3072C136.888 36.3072 134.279 33.0348 134.279 29.5272C134.279 26.022 136.888 22.7496 140.55 22.7496C144.208 22.7496 146.855 26.0136 146.862 29.5164H146.861ZM164.43 23.6664V35.5668C164.43 35.8788 164.158 36.1116 163.885 36.1116C163.813 36.1134 163.741 36.1005 163.674 36.0738C163.608 36.0471 163.547 36.007 163.496 35.9561C163.445 35.9052 163.404 35.8444 163.378 35.7775C163.351 35.7105 163.338 35.6389 163.339 35.5668V33.3072C162.444 35.0988 160.847 36.3852 158.82 36.3852C155.587 36.3852 153.796 33.5796 153.796 30.6192V23.6472C153.796 23.3736 154.028 23.1 154.34 23.1C154.652 23.1 154.886 23.3736 154.886 23.646V30.6192C154.886 32.9568 156.21 35.2944 158.82 35.2944C162.482 35.2944 163.339 31.866 163.339 28.086V23.646C163.34 23.5612 163.361 23.4779 163.4 23.4024C163.438 23.3269 163.494 23.2614 163.562 23.2108C163.63 23.1602 163.708 23.1259 163.792 23.1107C163.875 23.0954 163.961 23.0995 164.042 23.1228C164.157 23.1595 164.257 23.2322 164.327 23.3302C164.396 23.4282 164.433 23.5461 164.43 23.6664ZM191.972 28.5156V35.4876C191.972 35.8008 191.7 36.0336 191.428 36.0336C191.356 36.0354 191.284 36.0225 191.217 35.9958C191.15 35.9691 191.089 35.929 191.038 35.8781C190.987 35.8272 190.947 35.7664 190.92 35.6995C190.893 35.6325 190.88 35.5609 190.882 35.4888V28.5156C190.882 26.178 189.558 23.88 186.947 23.88C183.676 23.88 182.429 27.3852 182.429 30.1128V35.4888C182.429 35.8008 182.156 36.0336 181.883 36.0336C181.811 36.0354 181.739 36.0225 181.672 35.9958C181.605 35.9691 181.545 35.929 181.494 35.878C181.443 35.8271 181.403 35.7663 181.376 35.6994C181.349 35.6325 181.336 35.5608 181.338 35.4888V28.5156C181.338 26.178 180.013 23.88 177.403 23.88C174.091 23.88 172.728 26.49 172.844 29.9568C172.844 30.0348 172.884 30.1908 172.844 30.2292V35.4756C172.844 35.7396 172.666 35.982 172.405 36.0252C172.042 36.0852 171.754 35.8332 171.754 35.4888V23.5824C171.754 23.3184 171.934 23.0736 172.194 23.0304C172.556 22.9716 172.844 23.2224 172.844 23.568V25.554C173.78 23.88 175.456 22.7892 177.404 22.7892C179.623 22.7892 181.338 24.1908 182.039 26.256C182.934 24.2304 184.687 22.788 186.947 22.788C190.141 22.788 191.972 25.554 191.972 28.5156Z" fill="white" fill-opacity="0.5"/>
<path fill-rule="evenodd" clip-rule="evenodd" d="M0.392426 30.6779L18.5844 41.4323V0.491943L0.392426 30.6779Z" fill="white" fill-opacity="0.5"/>
<path fill-rule="evenodd" clip-rule="evenodd" d="M18.5857 0.491943V41.4323L36.7777 30.6779L18.5857 0.491943Z" fill="white" fill-opacity="0.5"/>
<path fill-rule="evenodd" clip-rule="evenodd" d="M18.5856 22.4099L0.392426 30.6779L18.5844 41.4323L36.7776 30.6791L18.5856 22.4099Z" fill="white" fill-opacity="0.5"/>
<path fill-rule="evenodd" clip-rule="evenodd" d="M18.5856 22.4099L0.392426 30.6779L18.5844 41.4323L18.5856 22.4099Z" fill="white" fill-opacity="0.5"/>
<path fill-rule="evenodd" clip-rule="evenodd" d="M0.392426 34.1279L18.5844 59.7647V44.8763L0.392426 34.1279Z" fill="white" fill-opacity="0.5"/>
<path fill-rule="evenodd" clip-rule="evenodd" d="M18.5857 44.8763V59.7659L36.7897 34.1279L18.5857 44.8763Z" fill="white" fill-opacity="0.5"/>
</svg>
